<svg xmlns="http://www.w3.org/2000/svg" viewBox="0 0 102.66 120.85"><g id="Layer_2" data-name="Layer 2"><g id="Graphic_Elements" data-name="Graphic Elements"><path d="M102.66,43.16h0a0,0,0,0,1,0,0V77.5a43.35,43.35,0,0,1-43.35,43.35h0a0,0,0,0,1,0,0V86.51a43.35,43.35,0,0,1,43.35-43.35Z"/><path d="M23.43,24.86H73.14a0,0,0,0,1,0,0v0A48.29,48.29,0,0,1,24.86,73.14H-24.86a0,0,0,0,1,0,0v0A48.29,48.29,0,0,1,23.43,24.86Z" transform="translate(73.14 24.86) rotate(90)"/><circle cx="75.7" cy="20.66" r="16.39" transform="translate(38.08 89.53) rotate(-76.62)"/></g></g></svg>